<?xml version="1.0" encoding="UTF-8" standalone="no"?>
<!-- Created with Inkscape (http://www.inkscape.org/) -->

<svg
   width="93.428337mm"
   height="93.428337mm"
   viewBox="0 0 93.428337 93.428337"
   version="1.1"
   id="svg1"
   xmlns="http://www.w3.org/2000/svg"
   xmlns:svg="http://www.w3.org/2000/svg">
  <defs
     id="defs1" />
  <g
     id="layer1"
     transform="translate(-43.944803,-86.09972)">
    <g
       height="353.115"
       width="353.115"
       id="g4"
       transform="matrix(0.29659792,0,0,0.29659792,43.944808,86.099719)">
                  <style
   type="text/css"
   id="style1">.st0{fill:#009BE8;}	.st1{fill:#F0652B;}	.st2{fill:#FFB103;}	.st3{fill:#8CBD00;}</style>

          <g
   id="color_index_3"
   fill="rgba(10, 189, 227, 1)"
   style="fill:#0abde3;fill-opacity:1">
                          <polygon
   points="112.40694,157.51463 112.40694,269.90326 0,269.90326 45.093063,315 157.5,315 157.5,202.60028 "
   id="polygon1"
   style="fill:#0abde3;fill-opacity:1" />

              <path
   d="m 96.999084,212.61366 c 0,-16.25207 -9.263793,-30.33165 -22.79396,-37.27614 2.940719,5.7277 4.610832,12.21489 4.610832,19.09591 0,23.1331 -18.756172,41.88621 -41.893036,41.88621 -6.882141,0 -13.37039,-1.66983 -19.099014,-4.61008 6.945618,13.52797 21.027485,22.79026 37.282207,22.79026 23.136868,0 41.892971,-18.75305 41.892971,-41.88616 z"
   id="path1"
   style="fill:#0abde3;fill-opacity:1" />

                      </g>

          <g
   id="color_index_2"
   fill="rgba(238, 82, 83, 1)"
   style="fill:#ee5253;fill-opacity:1;fill-rule:nonzero">
                          <polygon
   points="112.40694,0 112.40694,112.38864 0,112.38864 45.093063,157.48537 157.5,157.48537 157.5,45.085659 "
   id="polygon2"
   style="fill:#ee5253;fill-opacity:1;fill-rule:nonzero" />

              <path
   d="m 96.999084,55.099037 c 0,-16.252079 -9.263793,-30.331655 -22.79396,-37.276142 2.940719,5.727692 4.610832,12.214884 4.610832,19.095905 0,23.133099 -18.756172,41.886216 -41.893036,41.886216 -6.882141,0 -13.37039,-1.669838 -19.099014,-4.610077 6.945618,13.527961 21.027485,22.790245 37.282207,22.790245 23.136868,0 41.892971,-18.753052 41.892971,-41.886147 z"
   id="path2"
   style="fill:#ee5253;fill-opacity:1;fill-rule:nonzero" />

                      </g>

          <g
   id="color_index_1"
   fill="rgba(255, 159, 67, 1)"
   style="fill:#ff9f43;fill-opacity:1">
                          <polygon
   points="269.90692,157.51463 269.90692,269.90326 157.5,269.90326 202.59306,315 315,315 315,202.60028 "
   id="polygon3"
   style="fill:#ff9f43;fill-opacity:1" />

              <path
   d="m 254.49908,212.61366 c 0,-16.25207 -9.26379,-30.33165 -22.79396,-37.27614 2.94072,5.7277 4.61083,12.21489 4.61083,19.09591 0,23.1331 -18.75617,41.88621 -41.89304,41.88621 -6.88214,0 -13.37037,-1.66983 -19.099,-4.61008 6.94561,13.52797 21.02748,22.79026 37.2822,22.79026 23.13687,0 41.89297,-18.75305 41.89297,-41.88616 z"
   id="path3"
   style="fill:#ff9f43;fill-opacity:1" />

                      </g>

          <g
   id="color_index_0"
   fill="rgba(16, 172, 132, 1)"
   style="fill:#10ac84;fill-opacity:1">
                          <polygon
   points="269.90692,0 269.90692,112.38864 157.5,112.38864 202.59306,157.48537 315,157.48537 315,45.085659 "
   id="polygon4"
   style="fill:#10ac84;fill-opacity:1" />

              <path
   d="m 254.49908,55.099037 c 0,-16.252079 -9.26379,-30.331655 -22.79396,-37.276142 2.94072,5.727692 4.61083,12.214884 4.61083,19.095905 0,23.133099 -18.75617,41.886216 -41.89304,41.886216 -6.88214,0 -13.37037,-1.669838 -19.099,-4.610077 6.94561,13.527961 21.02748,22.790245 37.2822,22.790245 23.13687,0 41.89297,-18.753052 41.89297,-41.886147 z"
   id="path4"
   style="fill:#10ac84;fill-opacity:1" />

                      </g>

              </g>
  </g>
</svg>
