<svg id="final_svg" viewBox="394.5689392089844 396.6868896484375 288.8550109863281 284.6368408203125" xmlns="http://www.w3.org/2000/svg" xmlns:xlink="http://www.w3.org/1999/xlink" xml:space="preserve">
      <g id="png_group" transform="translate(394.56893079383826, 396.6868785972215) scale(0.917)" opacity="1">
      <g height="284.6368" width="288.855" transform="rotate(0)">
                  <style type="text/css">.st0{fill:#FE669A;}	.st1{fill:#003F6E;}	.st2{fill:#FFFFFF;}	.st3{fill:none;stroke:#FFFFFF;stroke-width:5.225;stroke-miterlimit:10;}	.st4{fill:#FFCE02;}</style>
          <g id="color_index_2" fill="rgba(238, 82, 83, 1)">
                          <path d="M157.3,130.8c4,23.9,7.1,52,7.5,83.4c0.4,36.8-3,69.3-7.5,96.2c-0.1-0.1-0.3-0.1-0.4-0.2		c-47.1-47.1-99.7-65.4-156.3-61.9L0,248.1V68.5c3.3-0.2,6.7-0.4,10-0.4c4.2-0.1,5.9,0.2,9.9,0c4.5-0.1,7.8-0.5,8.5-0.6		c4.3-0.4,35-1.2,68.9,14.5C129.1,96.8,148.3,118.9,157.3,130.8z"></path>
              <path d="M251.1,52.2L251.1,52.2l0-17.3c-40.9,7.4-76.8,37.4-93.4,95.3l0.1,0.5c11.2-14.7,27.1-32.4,48.8-49.6		C222.5,68.5,237.8,59.1,251.1,52.2z"></path>
              <path d="M157.8,130.7l32.8,127.7l0.3-0.2c23.4-46.5,56.5-70.8,97.1-78.2l0.4-0.3L257.2,73		C222,81.1,188.7,99.7,157.8,130.7z"></path>
                      </g>
          <g id="color_index_1" fill="rgba(16, 172, 132, 1)">
                          <path d="M157.2,130.6l0.1-0.5c-16.7-57.8-52.6-87.9-93.4-95.3v17.3l0,0c14.1,8.2,30,18.7,46.4,32.1		C129.8,100.4,145.3,116.5,157.2,130.6z"></path>
              <path d="M157.7,130.8c0,59.9,0,119.7,0,179.6l0.4-0.2c47.1-47.1,99.7-65.4,156.3-61.9l0.6-0.2V68.5		c-5.9-0.4-11.7-0.5-17.5-0.4c-1.3,0-2.2,0.1-2.5,0.1c-4.6,0.1-6.9,0.2-21.5-0.2c-8-0.2-14.8,1.9-27.8,5.9		c-7.5,2.3-22.2,6.9-39.5,16.8C183.9,103.4,168.1,118.7,157.7,130.8z"></path>
                      </g>
          <g>
                          <path class="st2" d="M247.7,184c-12.6,0-22.7-10.2-22.7-22.7c0-9.7,6.1-17.9,14.6-21.2c-5.8-2.9-12.4-4.6-19.4-4.6		c-24,0-43.4,19.4-43.4,43.4s19.4,43.4,43.4,43.4s43.4-19.4,43.4-43.4c0-0.4-0.1-0.9-0.1-1.3C259.4,181.6,253.8,184,247.7,184z"></path>
              <path class="st2" d="M241.3,158.6c0,5.5-4.5,10-10,10c-5.5,0-10-4.5-10-10s4.5-10,10-10C236.8,148.6,241.3,153,241.3,158.6"></path>
              <path class="st2" d="M115.6,184c-12.6,0-22.7-10.2-22.7-22.7c0-9.7,6.1-17.9,14.6-21.2c-5.8-2.9-12.4-4.6-19.4-4.6		c-24,0-43.4,19.4-43.4,43.4s19.4,43.4,43.4,43.4s43.4-19.4,43.4-43.4c0-0.4-0.1-0.9-0.1-1.3C127.3,181.6,121.7,184,115.6,184z"></path>
              <path class="st2" d="M109.2,158.6c0,5.5-4.5,10-10,10c-5.5,0-10-4.5-10-10s4.5-10,10-10C104.7,148.6,109.2,153,109.2,158.6"></path>
              <path class="st3" d="M175.6,228.7c0,10-8.1,18.1-18.1,18.1c-10,0-18.1-8.1-18.1-18.1"></path>
                      </g>
          <g id="color_index_0" fill="rgba(255, 159, 67, 1)">
                          <polygon points="188.6,18.5 188.6,53.3 126.4,53.3 126.4,18.5 141.9,37.1 157.5,18.5 173.1,37.1 	"></polygon>
              <path d="M133.4,7c0,3.9-3.1,7-7,7V0C130.2,0,133.4,3.1,133.4,7"></path>
              <path d="M164.6,7.1c0,3.9-3.1,7-7,7c-3.9,0-7-3.1-7-7c0-3.9,3.1-7,7-7C161.5,0.1,164.6,3.3,164.6,7.1"></path>
              <path d="M188.6,0v14c-3.9,0-7-3.1-7-7S184.8,0,188.6,0"></path>
              <path d="M157.3,130.8C120.6,68.5,69.8,44.3,20.1,47.9v20.2C69.5,69.6,115.5,88.9,157.3,130.8z"></path>
              <path d="M294.9,47.9c-49.8-3.7-100.6,20.6-137.3,82.9c41.8-41.9,87.9-61.2,137.3-62.7V47.9z"></path>
                      </g>
              </g>
    </g>
  </svg>