<svg id="final_svg" viewBox="436.6367492675781 352.46185302734375 203.38253784179688 251.37158203125" xmlns="http://www.w3.org/2000/svg" xmlns:xlink="http://www.w3.org/1999/xlink" xml:space="preserve">
      <g id="png_group" transform="translate(436.6373163107603, 352.4618672228172) scale(0.798)" opacity="1">
      <g height="251.37" width="203.38227" transform="rotate(0)">
                  <style type="text/css">.st0{fill:#2A2A2A;}	.st1{fill:#FFFCFA;}	.st2{fill:#FFC952;}	.st3{opacity:0.24;enable-background:new    ;}	.st4{fill:#A851F4;}</style>
          <g id="color_index_3" fill="rgba(42, 42, 42, 1)">
                          <path d="M96.941,315c-16.598,0-30.054-13.456-30.054-30.054v-2.183c-12.52-1.512-24.233-5.877-33.448-12.537		c-13.475-9.72-20.795-23.711-20.07-38.376c0.573-11.592,6.173-22.295,15.532-30.377c-2.426-8.817-3.684-17.986-3.684-27.071		c0-4.516,0.301-9.031,0.899-13.503c-12.304-11.18-21.428-26.52-24.551-41.385c-3.07-14.639-1.594-31.09,4.152-46.33		c5.402-14.34,14.764-25.483,22.316-33.588c1.85-1.988,4.345-4.227,7.059-6.475c9.864-8.17,20.864-14.862,32.564-20.075		l23.388-10.42c0,0-28.201,56.841-22.961,82.024c0.33,1.586,1.543,3.203,3.191,4.684c1.312-0.858,2.641-1.684,3.985-2.475		c15.599-9.189,33.729-14.045,52.432-14.045c20.43,0,39.866,5.938,55.527,16.844c1.834-1.568,3.169-3.315,3.561-5.01		C193.067,57.455,157.532,0,157.532,0l29.412,12.969c11.738,5.176,22.774,11.849,32.664,20.019c2.778,2.295,5.338,4.585,7.229,6.618		c7.545,8.097,16.907,19.239,22.311,33.584c5.745,15.237,7.22,31.688,4.152,46.32c-3.208,15.269-12.74,31.029-25.546,42.272		c-0.004,0.011-0.008,0.02-0.012,0.03c0.44,4.223,0.691,8.652,0.691,12.592c0,9.086-1.258,18.254-3.684,27.071		c9.359,8.082,14.959,18.784,15.533,30.377c0.724,14.666-6.596,28.656-20.083,38.385c-9.201,6.649-20.908,11.012-33.437,12.527		v2.176c0,16.603-13.459,30.062-30.062,30.062H96.941V315z"></path>
                      </g>
          <g id="color_index_2" fill="rgba(255, 252, 250, 1)">
                          <path d="M72.676,117.094c-8.963,3.324-15.744,8.632-20.855,14.491c-3.67,4.198-6.474,8.679-8.608,12.892		c-25.001-21.404-24.043-56.959-4.465-81.435c2.489-3.127,4.773-5.552,6.372-7.135c1.425-1.418,2.308-2.166,2.308-2.166		s-5.56,10.955-2.567,35.149C47.23,108.021,67.534,115.503,72.676,117.094z"></path>
              <path d="M181.298,117.094c8.963,3.324,15.744,8.632,20.855,14.491c3.67,4.198,6.474,8.679,8.608,12.892		c0.237,0.468,12.461-15.077,13.331-16.698c3.523-6.565,5.76-13.606,6.183-21.051c1.107-19.495-7.795-37.329-21.42-50.821		c-1.425-1.418-2.308-2.166-2.308-2.166s5.56,10.955,2.567,35.149C206.745,108.021,186.441,115.503,181.298,117.094z"></path>
              <path d="M216.684,233.014c-0.441-8.868-7.994-16.287-18.988-20.13c-17.37,11.203-32.456,14.271-32.456,14.271h-1.504		c-14.35,0-27.927-6.497-36.921-17.673c-4.505,5.584-10.144,10.01-16.46,13.026c-6.308,3.024-13.294,4.647-20.461,4.647H85.12		c0,0-21.642-8.277-29.164-14.279c-11.002,3.851-18.547,11.27-18.988,20.138c-0.669,13.68,15.854,25.612,36.906,26.643		c2.229,0.11,4.426,0.095,6.56-0.039l10.081-15.877v41.198c0,3.552,2.875,6.434,6.427,6.434h8.585v-29.88h3.938v29.88h15.397v-29.88		h3.938v29.88h14.452v-29.88h3.938v29.88h9.522c3.552,0,6.427-2.883,6.427-6.434v-41.198l7.427,15.641		c2.961,0.331,6.049,0.433,9.215,0.276C200.83,258.626,217.353,246.694,216.684,233.014z M138.179,239.338		c-1.953,1.134-4.45,0.622-5.812-1.181l-5.537-7.364l-5.544,7.364c-1.363,1.804-3.859,2.315-5.812,1.181		c-2.363-1.37-2.961-4.513-1.26-6.647l12.617-15.665l12.609,15.665C141.14,234.825,140.541,237.968,138.179,239.338z M126.83,96.425		c-2.906,0-5.781,0.157-8.608,0.473c-0.024,0-0.047,0.008-0.071,0.008c-0.063,0.008-0.134,0.016-0.197,0.024		c-0.701,0.079-1.394,0.165-2.079,0.26c-0.095,0.016-0.189,0.031-0.284,0.047c-0.662,0.095-1.315,0.205-1.969,0.315		c-0.173,0.031-0.347,0.055-0.52,0.087c-0.039,0.008-0.079,0.016-0.11,0.024c-0.236,0.039-0.473,0.079-0.709,0.126		c-0.032,0.008-0.055,0.008-0.087,0.016c-0.591,0.11-1.173,0.228-1.756,0.354c-0.087,0.016-0.165,0.039-0.252,0.055		c-1.032,0.228-2.056,0.465-3.072,0.732l-4.922,21.375l5.332,11.743v0.008l-10.53-9.104l-2.402-17.665l-1.118-1.394		c-22.556,10.679-39.158,31.873-43.498,57.248c7.765-9.404,20.201-15.499,34.212-15.499h87.68l-0.016,0.063		c13.034,0.646,24.501,6.576,31.826,15.444C197.404,124.408,165.381,96.425,126.83,96.425z"></path>
              <path d="M98.713,186.823c0,1.504-0.984,2.78-2.355,3.205c-0.315,0.094-0.654,0.15-1,0.15h-6.97v6.978		c0,1.851-1.504,3.355-3.355,3.355c-1.851,0-3.355-1.504-3.355-3.355v-6.978H74.7c-1.851,0-3.347-1.504-3.347-3.355		s1.496-3.355,3.347-3.355h6.978v-6.97c0-1.851,1.504-3.355,3.355-3.355c1.851,0,3.355,1.504,3.355,3.355v6.97h6.97		c1.796,0,3.245,1.402,3.347,3.158C98.713,186.689,98.713,186.76,98.713,186.823z"></path>
              <circle cx="167.162" cy="178.8" r="3.938"></circle>
              <circle cx="167.162" cy="197.251" r="3.938"></circle>
              <circle cx="176.388" cy="188.025" r="3.938"></circle>
              <circle cx="157.937" cy="188.025" r="3.938"></circle>
                      </g>
          <g id="color_index_1" fill="rgba(238, 82, 83, 1)">
                          <path d="M218.33,158.644c0.701,4.985,1.134,10.782,1.134,15.759c0,10.223-1.74,20.564-5.064,30.266		c10.309,6.836,16.381,16.61,16.925,27.612c0.583,11.845-5.277,22.832-16.492,30.928c-9.293,6.71-21.587,10.758-34.629,11.396		c-0.795,0.039-1.607,0.063-2.41,0.079v10.254c0,11.798-9.593,21.398-21.39,21.398H127.13v-7.876h29.581		c7.45,0,13.515-6.064,13.515-13.523v-18.461c2.174,0.228,4.387,0.339,6.624,0.339c1.087,0,2.189-0.024,3.276-0.079		c11.538-0.567,22.336-4.087,30.4-9.916c8.986-6.482,13.688-15.066,13.239-24.155c-0.504-10.199-7.529-19.122-18.854-24.486		c4.584-10.609,6.986-22.139,6.986-33.779c0-5.56-0.622-13.003-1.693-18.437c0.228-0.315,0.449-0.606,0.669-0.882l0.031,0.047		c2.512-2.347,4.552-4.403,5.607-5.489c9.711-8.403,17.941-20.855,20.603-33.527c2.56-12.207,0.929-25.502-3.442-37.095		c-4.032-10.703-11.191-19.831-18.941-28.148c-5.907-6.348-22.548-17.673-23.013-17.98c0.473,0.543,18.295,21.296,11.254,55.13		c-2.347,11.27-13.263,18.138-20.335,21.162l0.024,0.039c-0.244,0.102-0.48,0.205-0.709,0.299c-0.906-0.725-2.008-1.583-3.363-2.615		c-12.94-10.79-30.353-17.012-49.003-17.516c-0.669-0.024-1.339-0.039-2.079-0.047c-0.134,0-0.252-0.008-0.378-0.008v-7.868h0.213		c0.78,0.016,1.481,0.024,2.182,0.047c20.059,0.551,38.89,7.206,53.106,18.768c4.442-2.441,10.908-7.064,12.326-13.869		c6.261-30.069-21.383-72.22-21.54-72.401l22.414,12.357c1.811,1.236,17.949,12.247,24.36,19.13		c7.009,7.529,15.681,17.823,20.548,30.747c5.174,13.712,6.513,28.439,3.772,41.481c-2.835,13.538-11.38,27.589-22.887,37.646		C220.881,156.131,219.739,157.281,218.33,158.644z"></path>
              <path d="M202.153,131.586c3.67,4.198,6.474,8.679,8.608,12.893c8.923-7.639,16.925-19.815,19.169-33.637		c1.682-10.357-0.169-21.082-4.203-30.695c-1.996-4.756-4.542-9.285-7.574-13.458c-2.77-3.813-6.661-6.947-9.299-10.78		c7.08,10.286,14.105,25.502,11.247,43.112C217.96,112.211,210.572,123.899,202.153,131.586z"></path>
              <path d="M107.117,98.946l-4.922,21.375l5.332,11.743l1.194-13.674l9.234-21.46		C117.954,96.929,109.335,97.93,107.117,98.946z"></path>
                      </g>
          <g>
                          <path class="st3" d="M72.679,117.091c-8.962,3.324-15.744,8.632-20.855,14.491c-3.67,4.198-6.474,8.679-8.608,12.893		c-4.284-3.662-8.348-8.372-11.664-13.806c20.587-18.547,38.567-14.302,40.875-13.657C72.593,117.059,72.679,117.091,72.679,117.091		z"></path>
              <path class="st3" d="M181.298,117.091c8.962,3.324,15.744,8.632,20.855,14.491c3.67,4.198,6.474,8.679,8.608,12.893		c4.284-3.662,8.348-8.372,11.664-13.806c-20.587-18.547-38.567-14.302-40.875-13.657		C181.385,117.059,181.298,117.091,181.298,117.091z"></path>
              <path class="st3" d="M83.957,254.057l-3.528,5.552c-2.134,0.142-4.324,0.158-6.553,0.047c-21.06-1.032-37.583-12.963-36.906-26.643		c0.417-8.592,7.521-15.83,17.964-19.768c-4.749,3.859-7.679,8.742-7.946,14.161c-0.67,13.68,15.854,25.612,36.913,26.651		L83.957,254.057L83.957,254.057z"></path>
              <path class="st3" d="M179.773,259.657c-3.158,0.158-6.245,0.055-9.207-0.276l-2.536-5.34c0.543-0.008,1.087-0.032,1.638-0.055		c21.06-1.04,37.583-12.971,36.913-26.651c-0.268-5.387-3.158-10.246-7.86-14.09c10.443,3.938,17.539,11.176,17.965,19.768		C217.356,246.693,200.833,258.625,179.773,259.657z"></path>
                      </g>
          <g id="color_index_0" fill="rgba(84, 160, 255, 1)">
                          <path d="M51.822,131.586c-3.67,4.198-6.474,8.679-8.608,12.892c0.017-0.033-6.633-6.751-7.194-7.447		c-2.578-3.199-4.831-6.665-6.7-10.325c-3.615-7.082-5.796-14.792-5.766-22.755c0.07-18.543,8.574-35.18,21.565-48.043		C38.039,66.194,31.014,81.41,33.872,99.02C36.015,112.211,43.402,123.899,51.822,131.586z"></path>
              <path d="M167.421,150.358l0.008-0.063c0,0-21.989,0-21.989-0.008c0,0-11.325,0-11.325,0.008c0,0-10.404,0-10.404-0.008		c0,0-30.763,0-30.763,0.008h-4.552c-21.225,0-38.433,17.201-38.433,38.426c0,6.395,1.575,12.428,4.332,17.736		c0.055,0.102,0.11,0.197,0.157,0.299c6.206,11.648,18.595,19.603,31.779,20.335c0.079,0,0.158,0.008,0.236,0.016		c0.638,0.031,1.284,0.047,1.93,0.047c0.402,0,0.803-0.016,1.205-0.032c0.268-0.008,0.543-0.008,0.811-0.024		c0.299-0.016,0.599-0.039,0.898-0.063c0.425-0.031,0.843-0.063,1.26-0.11c0.047-0.008,0.087-0.008,0.134-0.016		c19.17-2.142,34.07-18.366,34.102-38.095c-2.505,0-4.67,1.835-4.993,4.316c-1.819,13.814-12.042,25.021-25.344,28.313		l45.718-66.424h24.131l0.835,0.055c18.847,1.04,33.377,17.484,31.676,36.709c-1.441,16.263-14.649,29.298-30.936,30.542		c-18.232,1.402-33.771-11.845-36.055-29.195c-0.323-2.489-2.497-4.324-5.009-4.316c0.047,21.186,17.232,38.339,38.426,38.339		c21.233,0,38.434-17.208,38.434-38.434C203.689,168.22,187.638,151.477,167.421,150.358z M57.397,201.944		c-1.426-3.331-2.339-6.931-2.615-10.703c-1.441-19.721,14.192-36.22,33.614-36.22h1.299L57.397,201.944z M84.616,222.216		c-3.095-0.347-6.064-1.11-8.86-2.252l20.603-29.936c-0.315,0.094-0.654,0.15-1,0.15h-6.97v6.978c0,1.851-1.504,3.355-3.355,3.355		c-1.851,0-3.355-1.504-3.355-3.355v-6.978H74.7c-1.851,0-3.347-1.504-3.347-3.355s1.496-3.355,3.347-3.355h6.978v-6.97		c0-1.851,1.504-3.355,3.355-3.355c1.851,0,3.355,1.504,3.355,3.355v6.97h6.97c1.796,0,3.245,1.402,3.347,3.158l21.753-31.605		h10.404L84.616,222.216z"></path>
              <g>
                                  <path d="M63.147,32.892c-0.457,0.307-17.106,11.632-23.013,17.98c-7.75,8.317-14.909,17.445-18.941,28.148			c-4.371,11.593-6.001,24.887-3.442,37.095c2.662,12.672,10.892,25.123,20.595,33.527c1.063,1.087,3.103,3.142,5.615,5.489			c-1.465,6.308-2.205,12.774-2.205,19.272c0,11.64,2.402,23.17,6.986,33.779c-11.325,5.363-18.35,14.287-18.854,24.486			c-0.449,9.089,4.253,17.673,13.239,24.155c8.065,5.828,18.862,9.348,30.4,9.916c1.087,0.055,2.189,0.079,3.276,0.079			c2.237,0,4.45-0.11,6.624-0.339v18.461c0,7.458,6.064,13.523,13.515,13.523h30.188v7.876H96.634c-11.79,0-21.39-9.6-21.39-21.398			v-10.254c-0.803-0.016-1.607-0.039-2.41-0.079c-13.042-0.638-25.336-4.686-34.629-11.396			c-11.215-8.096-17.075-19.083-16.492-30.936c0.543-10.995,6.616-20.768,16.933-27.604c-3.331-9.703-5.064-20.044-5.064-30.266			c0-5.56,0.496-11.128,1.489-16.594c-1.024-1-1.851-1.835-2.434-2.434c-11.506-10.057-20.059-24.108-22.895-37.646			c-2.741-13.042-1.394-27.77,3.772-41.481c4.875-12.924,13.538-23.218,20.548-30.747c6.419-6.883,22.548-17.894,24.367-19.13			l20.729-12.357c-0.606,0.709-26.045,42.702-19.863,72.401c1.355,6.474,7.269,10.979,11.664,13.499			c2.678-2,5.466-3.859,8.333-5.552c9.971-6.104,21.729-10.231,33.999-11.947l0.221-0.031c0.433-0.063,0.874-0.126,1.307-0.181			c0.268-0.031,1-0.118,1-0.118c0.929-0.102,1.914-0.205,2.906-0.284l0.465-0.039c1.284-0.102,2.473-0.173,3.654-0.22h0.102			c1.284-0.047,2.457-0.079,3.576-0.079h0.244c0.126,0,0.244,0,0.362,0.008v7.868h-0.299c-1.016,0-2.103,0.024-3.284,0.071			l-0.087,0.008c-1.079,0.039-2.166,0.102-3.331,0.197l-0.449,0.031c-0.898,0.079-1.804,0.165-2.686,0.268			c0,0-0.662,0.071-0.874,0.102c-0.394,0.047-0.788,0.102-1.181,0.158l-0.244,0.039c-11.239,1.567-21.965,5.34-31.038,10.9			c-4.024,2.371-7.852,5.08-11.428,8.073c-7.072-3.024-17.988-9.892-20.335-21.162C44.851,54.188,62.674,33.436,63.147,32.892z"></path>
                              </g>
                      </g>
              </g>
    </g>
  </svg>