<svg id="final_svg" viewBox="411.2011413574219 332.306640625 256.5728454589844 256.49139404296875" xmlns="http://www.w3.org/2000/svg" xmlns:xlink="http://www.w3.org/1999/xlink" xml:space="preserve">
      <g id="png_group" transform="translate(411.20115074426394, 332.30663615000265) scale(0.814)" opacity="1">
      <g height="256.40999999999997" width="256.40999999999997" transform="rotate(0)">
                  <style type="text/css">.st2{opacity:0.4;}</style>
          <g id="color_index_2" fill="rgba(255, 255, 255, 1)">
                          <path d="M64.6,228.9l17.3,25.9l-12.2,11.5c-0.7,0.7-1,1.6-1,2.5v35.8H36.4v-22.7c0-2-1.6-3.6-3.6-3.6H10.1v-32.3h35.8
		c1,0,1.8-0.4,2.5-1L64.6,228.9z M250.4,228.9l16.2,16.1c0.7,0.7,1.6,1,2.5,1h35.8v32.3h-22.7c-2,0-3.6,1.6-3.6,3.6v22.7h-32.3
		v-35.8c0-1-0.4-1.8-1-2.5l-11.8-10.9L250.4,228.9z"></path>
              <path d="M48.5,69.7c-0.7-0.7-1.6-1-2.5-1H10.1V36.4h22.7c2,0,3.6-1.6,3.6-3.6V10.1h32.3v35.8c0,1,0.4,1.8,1,2.5
		l25.2,25.2L64.6,85.8L48.5,69.7z M220.1,73.7l25.2-25.2c0.7-0.7,1-1.6,1-2.5V10.1h32.3v22.7c0,2,1.6,3.6,3.6,3.6h22.7v32.3h-35.8
		c-1,0-1.8,0.4-2.5,1l-16.2,16.1L220.1,73.7z"></path>
                      </g>
          <g id="color_index_1" fill="rgba(238, 82, 83, 1)">
                          <path d="M180.8,265.5v-35.8c0-2-1.6-3.6-3.6-3.6s-3.6,1.6-3.6,3.6v35.8h-32.3v-35.8c0-2-1.6-3.6-3.6-3.6
		s-3.6,1.6-3.6,3.6v35.8h-25.1l6-41.9c0.2-1.4-0.4-2.8-1.6-3.5l-50.8-31.8v-94l94.9-37.9l94.9,37.9v94l-50.8,31.8
		c-1.2,0.7-1.8,2.1-1.6,3.5l6,41.9H180.8z"></path>
                      </g>
          <g>
                          <polygon class="st2" points="255.7,190.4 199.9,223.6 209.8,270.4 178,270.4 178,208.8 229.5,170.6 228,111.9 122,70.3 157.5,51.1 
		255.7,92.2 	"></polygon>
                      </g>
          <g id="color_index_0" fill="rgba(0, 0, 0, 1)">
                          <path d="M308.4,26.3h-19.7V6.6c0-3.6-2.9-6.6-6.6-6.6h-39.4c-3.6,0-6.6,2.9-6.6,6.6v36.7l-24.1,24.1l-52.2-20.9
		c-1.6-0.6-3.3-0.6-4.9,0l-52.2,20.9L78.8,43.2V6.6c0-3.6-2.9-6.6-6.6-6.6H32.8c-3.6,0-6.6,2.9-6.6,6.6v19.7H6.6
		c-3.6,0-6.6,2.9-6.6,6.6v39.4c0,3.6,2.9,6.6,6.6,6.6h36.7l10.2,10.2c-0.5,0.9-0.9,1.9-0.9,2.9v98.4c0,2.3,1.2,4.4,3.1,5.6
		l48.9,30.6l-6,41.7c-0.3,1.9,0.3,3.8,1.5,5.2c1.2,1.4,3.1,2.3,5,2.3h105c1.9,0,3.7-0.8,5-2.3c1.2-1.4,1.8-3.3,1.5-5.2l-6-41.7
		l48.9-30.6c1.9-1.2,3.1-3.3,3.1-5.6V91.9c0-1.1-0.4-2-0.9-2.9l10.2-10.2h36.7c3.6,0,6.6-2.9,6.6-6.6V32.8
		C315,29.2,312.1,26.3,308.4,26.3z M45.9,65.6H13.1V39.4h19.7c3.6,0,6.6-2.9,6.6-6.6V13.1h26.3v32.8c0,1.7,0.7,3.4,1.9,4.6l22,22
		l-24.2,9.7L50.6,67.5C49.3,66.3,47.7,65.6,45.9,65.6z M249.4,186.7L200,217.6c-2.2,1.4-3.4,3.9-3,6.5l5.5,38.5h-18.7v-32.8
		c0-3.6-2.9-6.6-6.6-6.6s-6.6,2.9-6.6,6.6v32.8h-26.3v-32.8c0-3.6-2.9-6.6-6.6-6.6s-6.6,2.9-6.6,6.6v32.8h-18.7l5.5-38.5
		c0.4-2.6-0.8-5.1-3-6.5l-49.4-30.9V96.3l91.9-36.7l91.3,36.5c0,0,0,0,0,0l0.6,0.2V186.7z M301.9,65.6h-32.8c-1.7,0-3.4,0.7-4.6,1.9
		l-14.8,14.8l-24.2-9.7l22-22c1.2-1.2,1.9-2.9,1.9-4.6V13.1h26.3v19.7c0,3.6,2.9,6.6,6.6,6.6h19.7V65.6z"></path>
              <path d="M79,253l-11.5,11.5c-1.2,1.2-1.9,2.9-1.9,4.6v32.8H39.4v-19.7c0-3.6-2.9-6.6-6.6-6.6H13.1v-26.3h32.8
		c1.7,0,3.4-0.7,4.6-1.9l17.8-17.8c2.6-2.6,2.6-6.7,0-9.3s-6.7-2.6-9.3,0l-15.9,15.9H6.6c-3.6,0-6.6,2.9-6.6,6.6v39.4
		c0,3.6,2.9,6.6,6.6,6.6h19.7v19.7c0,3.6,2.9,6.6,6.6,6.6h39.4c3.6,0,6.6-2.9,6.6-6.6v-36.7l9.5-9.5c2.6-2.6,2.6-6.7,0-9.3
		S81.6,250.4,79,253z"></path>
              <path d="M308.4,236.3h-36.7l-15.9-15.9c-2.6-2.6-6.7-2.6-9.3,0s-2.6,6.7,0,9.3l17.8,17.8c1.2,1.2,2.9,1.9,4.6,1.9h32.8v26.3h-19.7
		c-3.6,0-6.6,2.9-6.6,6.6v19.7h-26.3v-32.8c0-1.7-0.7-3.4-1.9-4.6L236,253c-2.6-2.6-6.7-2.6-9.3,0s-2.6,6.7,0,9.3l9.5,9.5v36.7
		c0,3.6,2.9,6.6,6.6,6.6h39.4c3.6,0,6.6-2.9,6.6-6.6v-19.7h19.7c3.6,0,6.6-2.9,6.6-6.6v-39.4C315,239.2,312.1,236.3,308.4,236.3z"></path>
              <path d="M142.5,120c-2.6-2.6-6.7-2.6-9.3,0l-15,15l-15-15c-2.6-2.6-6.7-2.6-9.3,0s-2.6,6.7,0,9.3l15,15l-15,15
		c-2.6,2.6-2.6,6.7,0,9.3c1.3,1.3,3,1.9,4.6,1.9s3.4-0.6,4.6-1.9l15-15l15,15c1.3,1.3,3,1.9,4.6,1.9s3.4-0.6,4.6-1.9
		c2.6-2.6,2.6-6.7,0-9.3l-15-15l15-15C145,126.8,145,122.6,142.5,120z"></path>
              <path d="M221.2,120c-2.6-2.6-6.7-2.6-9.3,0l-15,15l-15-15c-2.6-2.6-6.7-2.6-9.3,0s-2.6,6.7,0,9.3l15,15l-15,15
		c-2.6,2.6-2.6,6.7,0,9.3c1.3,1.3,3,1.9,4.6,1.9s3.4-0.6,4.6-1.9l15-15l15,15c1.3,1.3,3,1.9,4.6,1.9s3.4-0.6,4.6-1.9
		c2.6-2.6,2.6-6.7,0-9.3l-15-15l15-15C223.8,126.8,223.8,122.6,221.2,120z"></path>
                      </g>
              </g>
    </g>
  </svg>